<mxfile host="app.diagrams.net" agent="Mozilla/5.0 (Macintosh; Intel Mac OS X 10_15_7) AppleWebKit/537.36 (KHTML, like Gecko) Chrome/133.0.0.0 Safari/537.36" version="26.0.14">
  <diagram name="第 1 页" id="1y-tFBg7kmUCopNkBv4N">
    <mxGraphModel dx="1242" dy="785" grid="1" gridSize="10" guides="1" tooltips="1" connect="1" arrows="1" fold="1" page="1" pageScale="1" pageWidth="827" pageHeight="1169" math="0" shadow="0">
      <root>
        <mxCell id="0" />
        <mxCell id="1" parent="0" />
        <mxCell id="LscboR7CBjjP8sHrx6VW-3" value="" style="rounded=1;whiteSpace=wrap;html=1;strokeWidth=2;arcSize=3;imageHeight=24;fillColor=#ffe6cc;strokeColor=none;" vertex="1" parent="1">
          <mxGeometry x="150" y="165" width="520" height="430" as="geometry" />
        </mxCell>
        <mxCell id="LscboR7CBjjP8sHrx6VW-1" value="" style="rounded=1;whiteSpace=wrap;html=1;strokeWidth=2;arcSize=3;imageHeight=24;fillColor=none;" vertex="1" parent="1">
          <mxGeometry x="130" y="155" width="520" height="430" as="geometry" />
        </mxCell>
        <mxCell id="LscboR7CBjjP8sHrx6VW-11" value="" style="shape=image;imageAspect=0;aspect=fixed;verticalLabelPosition=bottom;verticalAlign=top;image=data:image/png,iVBORw0KGgoAAAANSUhEUgAAALQAAAC0CAYAAAA9zQYyAAAAAXNSR0IArs4c6QAAEedJREFUeF7tnV9oHcUXx08RRFoMkgcVHwotsVcDQiJKINUICUYfatD0EhAreE1QWqOWBmsNSAxCKEJqq2kibWILRgql/4h50CutkJpCQIjSEk0MQfoQi2CQYkV82d/vu+2t1/Tu7uzuzOzOzlnIU3bnz3c+O3f2zDln1hBfrECGFFiTob5wV1gBYqAZgkwpwEBnaji5Mww0M5ApBRjoTA0nd8YIoE+cOOEsLCzQ0tISXb58ma5du+b+8aVWgbVr19K9995L1dXVtHHjRtq0aRPl8/lUM5PKxvX39zunT5+m77//Xu2IcemRFWhsbKSnnnqK2traqL6+PjUcpaIh8/PzzuTkJI2NjdHc3FxkkfnBZBSora2lHTt20ObNmxOHOzGgAfH8/DwdP36cxsfHkxkJrlW6Atu2baOOjg4C5DU1Ndr50l4hQP7666/p1KlTdO7cOemCcoHpUGDLli20detWevzxx7WCrRXoI0eOOCdPniQsL/iyQ4H29nZ65plnqFAoaGFNSyVnz551jh075i4vrl69asdIci//owCWIq+88go1NTUpZU5p4ejRwMCAMzQ0RMvLyzzElisA019XVxf19vYq405ZwYuLiw6+fIvFouXDyN1frUBraysNDw8rWVsrAXpmZsZpaGjgkWQFfBWYmZmhhoYGqQxKLQytn5iYcGBs54sVEFFgYmICmzPSOJRWEBo/ODjo9PT0iPSD72EFbiowODhIPT09UliUUkjp42/v3r1sxWBQQytQVVVFe/bskfKxKAVozMz9/f0Mc+ih5AdKCgDqvr6+2DN1bKB5zcxQylQg7po6FtBszZA5lFxWSYE41o/IQMPOXFNTw6PACihRYHFxMZKdOjLQra2tDm+aKBlLLpSIsPlSLBZD8xn6gZJFo7e3l4VnBZQqMDAwENryERroqakp56WXXnLDofhiBVQqcN9999Fnn31GLS0twpwK31hq+LZt2xx2yFc5jFx2uQJwZhodHRXmVPhGVAJ/5kKhwIqzAtoUgH36wIEDwv7UwkDDqrF792430oQvVkCnAoh+wfZ4LpcL5DXwhlLDeXbWOYRc12oF4FPf3d0dyGvgDSgYs/POnTs5dIo5S0yB5uZmGhkZCZylhYDm7e3ExpErLlNAZFtcCGi2bDBXaVAAcYnj4+O+zAYCPTs769TX16ehP9wGVoCQy8Xv4zAQ6KGhIae7u5ulZAVSoUBQMEAg0LW1tQ6n50rFWHIjiNyMTHNzc57c+gLNyw1mKKUKRAMaWUARRWDrBV8CmItUXr/99huneggpMKKj+vr6KkLtO0M3NjY6Fy5cCFlddm7ftWsX7du3L3BZFqfHbBINr15dXR1SLYcHmoic8NVl5wkRu2fc3tr+KxhDPwY6gnhKZ2e0hwMlIozK9UfCAY1jIPL5fOTaTH8Q6+fl5WXlQNv+KxiVkxMnTlQ8HsNzwJBk0eaolLB+uFEGBllZW1paojxq/TNe0SyeQHd1dTmjo6PWCofjMTo7O5XO0Lx+jo6X14TjOWDt7e2Ozb7PQVus0Yfi3ydttyLF0dAriNYTaJvFxm4ULBwazgix2ooUB2gcUDQ9PX0Lv55A19XVObYeqybi1RVnMPAs78LGU9DLFs1AV9BVx/qZnb4Y6HgKhHj67NmzoULnQxR989bm5maHTwGLotz1Z3iGFtQO54DggCPZmeUrVM/rZ8ExqXQbAy0ono71M+cFFBwMn9sYaEENo6SfEiz65m2278KG1Ytn6BiKHTlyRDipSdRqtm/f7iCCma/oCvAMLaAd1s/79++XeohNpWr5g1BgMAJuYaAFNAyToUegOM9bOKwtjnps5RBWT4dDP9bPOCJ4ZWVFuF18460K8AwtQIWOD0J2SBIYCIFbGOgAkaqrq92EgIVCQamHne1ejAKsCt3CQAfI1NjYSAcPHqT6+nplQM/Pzzvbt28n3iEUYtb3JgY6QEN8EE5OTiqDGdXDof/1119HXon4I2p5CQx0AAA6IlTiOCTBpHjHHXfQH3/8QX/++af1h5wy0AFAB6WYkjEhin4Qwtf3iSeeoPvvv5/uvPNOuv3222ndunVuE65du3azKf/88w9duXLFPe9mYWHBqnTHDLQPkfggPHPmDDU1NSldcvh9EGKAOjo66LHHHqN77rknMA/y6u5gfY7ZG8sZeAtm/RwcBtoHaPycLy0tKYUZp+7Czj09Pf2fliC6/P3335cev4j6jh496iYJz+LFQPuMqlc4j0wQkCEJnnxXr169WWx7ezvOrFH6IiEy5rXXXqOsZcBioH3o1LGhUn5GDZY4hw4dqphXQuZLVF5W1s7IYaB9SJmamlK+ft61a5ezb98+0vFr4NVVzNY9PT2ZsIMz0P5Tn9KffXywvfzyy7RhwwZ67733dESTe/Y2K8fzMdAJAo0PtMOHD4c6EVXV0gPl4gV75513jD5zkoH2IETHhgpmRVSvIc+H8Htg+vKDgfYYah0RKsKUab4RH4pYU5voyspAe8OidP2smdHQ1Zl6ZB8DXWGoNabMDQ2argewHELaZNOyZDHQFQjRkbJAF5hx6unt7XVgizfpYqArjJbN6+fVclRVVTnlu5hph5uBrjBCs7OzSh360w5FeftMi6RhoFfRVVVVBb8Kqz8IyyWBrbyhocGYd5CBXjVUOhyDjKHj34Yak2+PgV5Flw6HJNOANimjEwO9ii4dDkmmAW3SsoOBLqML9ufTp0/rSJlrGtNorxHLDga6DC1dKb9MpNmUs3UY6DK6cP7iwMBAYhYO7M79/vvvbosQALt27drQMYSqXhZTzHcMdBkBSWyowLsN28s///wz/fTTT+7fbbfd5v7dfffdtH79eveYhQcffFD5cRh+L4NoZLqqF0q0XAb6hlKwPyMiuq2tTcsMjdn4008/pe+++46KxWLgeOFIuaeffppeffXVRGbtsbExp7OzM7CdSd/AQN8YAYRAIRRKwxkqhEyjH3744S2R3iIw4GBJRIPraGd5exDM29bWJtLERO9hoG/Ij9xyIyMjymfnOFmSSqRg0D766CPl8Y7lZE5NTTlNTU2JwipSOQN9QyUdGZJkRljjF2VoaEibz4kpB4Iy0ESE9fOBAweUp8yVveMGoLu7u5X/quCdZ6BFfh9Sco+un/AtW7Y4k5OT0nr90EMPYT2u5SORgZY2bOoL0uGQhO1jWChkR4BMTExoscyYsv3NSw4i0vFBCLPXW2+9JT3wVNdmEHJYt7S0qJ9dYtbAQP9/V06Hh93AwIAD+GRfOn5d0Ga2Q8seOUXlwSHpk08+Uf6zLfuDsCSHrhRig4ODbmqDtF/Wz9D4sLp48aJSSwE+qN5++22hHcGwwOgCWtULGba/QfdbD3RzczOSFCoFGjuDyGGnIthUV4R6a2urI7JFHwSc6v9bD7SOQzVVrj91fRSyP7TqV1FS+TrMXirzW8AOnc/nlf7C3JCaHfwlMae6GKUwIKMnPqZkbqiUC6Ij5YIpJjvoYv2Sg4iUAg2nnmeffVa6/RmDp8tkV0rKrnpmkVG+1UDDFbNYLCoFWqXbpa7lRm1trWPKoaBWA63DuUfVhgqsGxqz/huxfrZ+yaFj/anC3AXvQES76PgYlOnyKmNJEVSG1TO06vUzPghzuVzQGIT+vw7f7VKjVLyQoTsc4gFrgdZxKD3GQXbicB1281X8GLPcsHrJoWuWQzDs8PCwG68Y99Kx5i9vo8oNobhaeD1v7QytO+UXtr93797tHigf9oK/BnxBdEWkl9rX3t7unDp1KmxzE73fWqBVr5+9RhVgY7YWOZIYqQv27t2rHWS0HQ5VL7zwgnvovUmXlUDrsD+LQIAduB9//NGNYvn777/dR5BY5uGHH9ZiwfBro8rtehFtot5jJdC61s9RByXp57C7+cYbb0gPF9PRLyuB1uGQpGPwVNWhajNIVXvLy7USaB0bKjoGT0UdqoJ5VbS1UpnWAQ2H/pGRES2h/7oGUWY9piRlZLPdDQUS2JiQyZvSslR6BipteFnh1s3QSaTM1TWYceuRvasZtz1RnrcOaP4grIyJKVHdQZBbBXRjYyMhja3uVLRBg5D0/03JiiSik1VAd3V10ejoqFKHfhHRU3iPUQ5IfvpZBbSODEkphNW3SVlYN1trhx4bG6POzk6eof+1+Lh+JVm6rJmh4ejz8ccfJ3rwTprAwW4gHJ9UJL9Jsp/WAA2HJACdy+Wsn6GzCjNeJGuA1pEyF/F3Kysr1NPTk9qXxpQcdVFneWuA1vFBWNo21h1ZIjL4iJzZsWOHkoSRIvXruscKoJEyF6dGqY6SLp/90vQBmiU7c9CLYQXQ6CSSstTU1ChbClRK+dXf3099fX3K6gwaXMzKn3/+OdoQdGtm/m8F0DoivJEhaefOnbfEDCIhTKFQ0Gpdwcv17bffEmA+d+5cZmAV6YgVQOvYIfRLyAKTIfLb4WjjpqYmZTM2QEZSyG+++UZZckgRqJK8xwqgVX+kASQcV4yzwoO2ZR955BFCFHehUJAGNgJvEXR76dKlzH/0Bb0sVgA9MzOjzCEJRx2Pjo6Gir+rrq6mBx54gDZu3IiTYOnRRx8NNXNjeYOomx9++IGuXLlCv/zyCy0vLweNtRX/twJoFSkLMCvm83npkMAis2HDBnKc6/5Ca9asoV9//dWNCmdog+XOPNCyUxYg9cC7774rlFcjWH6+Q7YCmQda1hkkAPngwYNkWiYh2cCkvbzMAx03QgXrVZSBdTJf6Vcg80BHXT9jRj527BiDnH6G/9PC0EBv3rzZmZ6eNqmbocxjiHw+c+YMffnll8bldTNpUFS1FWF2Fy5cuGXMPSEwKQF2mB1CbBMjKz5gNi1BoSo4TCzX6yAlT6C7urpcu6sJl+iGStZdKk0YK1lt9NoV9gTapLxnQTmgTTquTNaAZ70cLzdhT6BVbSgoEvqWfmBpcfz4cYI5j6/sKeB11F3Qh1Tqw95XfxzA3wL+DocPH+ZNkexxXN6jiuwaD3T5hgo84WCCKxaL2R5K7p3rLVBJBl+g6+rqHGSdT/OFpOZ33XWX60oZ5AWX5n5w28QV8DLZeVJeKtqElKswsF++fFnJGdviEvOdOhXwixAKWnKgnalfR+sUk+tKXgG/RPaBQJt0oHnyUnMLVCuAqKC5uTlPbgOBzkr6VdVCc/l6FAjaRAsEWtU51nq6z7VkTYGgc3MCgYYgWctcmbVBtqU/iKwfHx/3ZVYIaPgKt7W12aIb9zOlCoj4vAsBjWUHcsbZlvshpeNqZbPgUbl///7AJEJCQENBRD13d3dbKSZ3OnkFRA+BEga6Ugqs5LvJLbBBAfg+f/DBB4GzM7QQBho3w1fizTffzFzybBugMLmPorNzaKDxgEmO/yYPIrf9ugIilo1yrULN0HgQQaUvvvgiJ0Nh4pQrgIxTR48eDZVtKjTQ6IVJ0SzKVecKlCkQJXl9JKDRA5OCaJUpzgUrUyBqJqzIQCPEqaamRlmHuGC7FVhcXBSyaqxWKTLQKMimIxDsxktv7+NkkY0FNLrJ2+J6BzvrtYlsb/tpEBtoFA4XU0QRZO1wx6zDk6b+VVVVuWfExD0qTwrQJctHFk8sTdOgZ7UtgHnPnj1IORGbx9gFlIvMwQBZRU5tvxDoHHdmLrVQKtC8plY78FksPe6aWaqVw0tgtn5kET35fYpjzfBqjfQZulSRLUf0yh/m7JeITZPh4eFIduYgdZQBXaoY2+TIYrq0tBTUFv5/xhXAQUnwqZfx8ad9hi6vEMnFDx06xJmNMg6sV/dgxejo6KDnn39e+Um7ymfo8k7Cn/qLL77gA3ksAhuhU1u3bpV6AKmffFqBRkOwtj5//jydPHnS2mN9beC5ubmZEGny5JNPUi6X08aZtopWDyLAxpEQyOHMSRazgzgc8rG8yOVyWkFWZoeOMjSzs7PuAUX48uVzT6IomOwzSM/V2dlJWF7onI0r9TqxGdprCAA3jO1fffUVJyxPllPf2pH19bnnnoP/RaoYSlVjvBTE8RgLCwuu6W9lZcU9yP2vv/5K8XBno2nr1q0j/K1fv54QDrVp0ybK5/OpZibVjcsGFtwLnQow0DrV5rqUK8BAK5eYK9CpAAOtU22uS7kCDLRyibkCnQr8D5UkxTz9mOvhAAAAAElFTkSuQmCC;" vertex="1" parent="1">
          <mxGeometry x="323.5" y="250" width="90" height="90" as="geometry" />
        </mxCell>
        <mxCell id="LscboR7CBjjP8sHrx6VW-13" value="" style="shape=image;imageAspect=0;aspect=fixed;verticalLabelPosition=bottom;verticalAlign=top;image=data:image/png,iVBORw0KGgoAAAANSUhEUgAAAMwAAADACAMAAAB/Pny7AAAAZlBMVEUVFRX19fUAAAD6+voSEhLx8fH///8GBgZKSkoNDQ2EhISkpKTDw8OIiIiLi4tQUFDQ0NAdHR28vLzm5uaxsbEwMDCdnZ1DQ0Pf3991dXVtbW3Kysp+fn6RkZFnZ2diYmI8PDwmJiYO+r4QAAAGCklEQVR4nO2b6ZKyOhBAyQIxggoKDIo4+P4veTsu3wh22ATkVvX5aSHk0Nk7OA5BEARBEARBEARBEARBEARBEARBEARBEARBEARBEARBEATxP0fyzmj57cK2IKM0DzoQp8cfI7RoHxntPdEBxpjr5pudWrIOyJiCdkN4bnBccHR6yRgdkZ30UnV6ygCe2O8c/e1yo/SXgfBk2yv/dsExhsgw4fqlWmBVGyTDhAh2C4zNMBnQyZPl2QyVYSLg6tuFrzNYhglfL61PGy7D2HlpFc1MZwa6iGxAs9EKo1OI63+Vbz/ybjJo9ETO+1a03Xqzfuf80z4hl/K39tcEHs5P1R8Lv5U0zVCbw7FnaHQZuzBhrcOgo2+zkdwXlf+4ZnDg+8rt2K7DSuZ0wBvWPukZGg4277cSXr5qey0gU6lCgpm/8KBar+ClNKPkGSnA7YaHY9/umZe+i9zJC35abExkKn9x7zLVH9uGcq3PlriATXzt22pU4mMtUOQt5RhFRjtrvMHcihD2n9Xwqy8wm7C53Ywho52NNS6Gdf/emV9TrAMV4W+TzQgyEJdGFy8dsFDTyvew2GRNNp/LSG5r+88C7MsBcxrN+9t8LsOPWPWuPb+/DAQ8xe7mwZLc9m4+lZF8jQ/9LzLuZdAETekU7QWyo83mQxnNj20uINN7pHnYRAXWGL3DybKE/UxGyyNasWsya2fY+llFaDcJNQ1vNx/JaI32YyKrTCCEuxko4yiFxkaADVbTPpFR+Pgisst2JBnoofHYQE1DbD6QsVQCEV54MZaMqcjozCY7I7EZLqOdLV6hf/mIMtDFnDrbDJbRToGNlTCoKDmmjG1QFoetU+8kh8povsFfGLg4o8oYG/RRblEfbwbKWF6Xd59sjCsDDzuhsWGF1LULh8honqLjS3hfPo0sY2ywJYYQaaSr1w2QgfaCTtCfS8GxZcziD7VhaSXXMERGRSk2hXnGZQIZ06eF2CNZ+rpnOkAGFk5og/znMoEMlPM3xB7qFZF6uaivDE9wl/xvu2ECmZsNUreFm2r1d01PGZ74aD/2mr+YQgZKusNt4oj/u6SfDE+wTS1WzcVMImO1Yf4zR9dTRl3xTaBg9ToaTyNjs2Gu/4hNPxmt8e25fFVZLk0kA4VdoTYivseml4yuX/y4V17bapxKBu68wvo05u1vyYY+Mqq2lfssbFDWJgjTyUBsctzGlKGHjIrwuIRvKZjpZEy7yZFCQG8KNt1lbC5vcZlUxtS0wBabzjIwvqBvJH93mVZG8jJAt6DApqOMGSsRl5c5zFwytwQOMj4IU0e6yZh0FsIeTQBNLAOzwxjNS+5/0i4yCfYuILJ4+mdqGTMPwdZTLMg7yBwtqawVvlU5uYyjkrhlh9suk6HtJVhZtkmnlzGx6WBzl4nbrW11bB4Z027abe4yW7S5V1xiad3bn0PmNn/vJvPbmAszxNqep5hFxiQ+m7NcT5nSnnC94fn2uMwlY2paSz7lJqOdxqM/gu15U/5oJhkzK2muQTcZh28a6iOsVJuP98wl43DZnLd7yOwaEvtu2nKWdDYZsxvZZHOX0RKdmt7KxvykJa03n4yjo6a8/V0G+jN7XBKumwGZyrH6CWVM9s7epz1kJEdXdECcyKgFuXEPL2TnCWVMnshq85CBNRB+YM7Nwnb8n90ryXQqxoZbTyE9ZRx8wW/WDa14cfUo2sRntTX0vbjNn0yJboR0QcTzHjPVGs1Ivsg4/NI2W1iKjLWm/clI3TRyLkrGnBTBbP5koA9Ph8VmfhnofY/IMP8i46iydV66FBmwuWTvPdZrYk1d0eMeS5QxCZx6bERYy/itEd9FyjhSXWo23qmWi5W7AN0IWZ7MW6rQ29dHOMlh8tNT50sytZomDsjBEsmvadZL51syZn78TEoL2xFkxct1aPlyYVkysJQuQnPi/xDaF10wwSqLIMwO718cIDD/azLw4pNzURTHsumjKvOxdrQ7bbYdKIadMB2J++S29Vio7vzx+RyFbmCBn1QSBEEQBEEQBEEQBEEQBEEQBEEQBEEQBEEQBEEQBEEQBLFI/gMYr2r0actVKAAAAABJRU5ErkJggg==;clipPath=inset(0% 0% 0.52% 0.49% round 20%);" vertex="1" parent="1">
          <mxGeometry x="328.25" y="360" width="85.03" height="80" as="geometry" />
        </mxCell>
        <mxCell id="LscboR7CBjjP8sHrx6VW-14" value="" style="shape=image;imageAspect=0;aspect=fixed;verticalLabelPosition=bottom;verticalAlign=top;image=data:image/jpeg,/9j/4AAQSkZJRgABAQAAAQABAAD/2wCEAAkGBw0NDg4NDw0ODQ0NDQ0NDQ0NDQ8NDg4QFREWFhcRFhUYHCogGRoxGxUTITEjMTUrMC8uFyEzODMsRTQ5LisBCgoKDg0OGBAQFy0dFx0rLS0rLS0rLS0rLS0tLS0tLS0tLSsrKy01LSstKy0rLS03LS0rLS0tLS0tLSsrLTctLf/AABEIAMgAyAMBEQACEQEDEQH/xAAbAAEAAgMBAQAAAAAAAAAAAAAAAQUCAwYEB//EADwQAAIBAgQCBgUKBgMAAAAAAAABAgMRBAUSMSFBBhMiUWFxIzKBkdEHFEJSU6GxweHwM0NigpKiFRZy/8QAGgEBAQADAQEAAAAAAAAAAAAAAAECAwQFBv/EACgRAQACAgEEAQQCAwEAAAAAAAABAgMREgQhMUFRBRMiQmGBMnGhFP/aAAwDAQACEQMRAD8A+4gAAAAAAAAAAAAAAAAAAAAAAAAAAAAAAAAAAAAAAAAAAAAAAAAAAAAAAAAAAAAAAAAAAAAAAAIAkAAAAAAAAAAAAAAAAAAAAAAAAAAIbsBpeJp/WXvMuEsuEtkJqXFNPydzGYSY0zCAAAAAAAAAAAAAAAAAAAAAAADCc1FNvZcSxG5WI3OlPiMRKo+5ckddKREO2mKKw1GbYypzcXdO372Jau2Nq7W+FrqpG/NcGjkvXjLivTjLcYMEgAAAAAAAAAAAAAAAAAAAAAVeZYi70LZet5nThp7deHH7l4rm/ToSEArdhK2iV+T4P4mvJTlDVlpyja5TONwpAAAAAAAAAAAAAAAAAAACAPPjcR1cb/SfCJnjrylsxU5TpS3O7T0NJuBNwiSIAn4WWXV7rQ91t5HLlpru5M1Nd3tNLQkAAAAAAAAAAAAAAAAAAYylZX7uIj4I7zpQ4vEdZJvkuEV4Hdjpxh6WLHwhqTNjYlBEpkRNwjIgypTcWpLl+7GNo5QxvHKF1SqKSTWzOKY04LRpmRikAAAAAAAAAAAAAACAAFZm2Kt6Nc+MvgdOHH+zq6fHv8lWmdfl2pTIJTCMkyIlMiJuETcg9mX19L0vaW3maMtN93PmpvutDmciQAAAAAAAAAAAAAAIA0YuuqcHJ+xd7M8deU6Z48c2lzs5uTcnxbbbPRrXUaepWIpGhMumWmVyIm5ESgiUyIyQRNyIlMxk9LjB19cfFcGceSvGXBkrxl6TBrAAAAAAAAAAAAAAQDTh+kGfupUcKT7ELpT31Pm0e30nR6ru3mXTjtxUbxdV8esn/k0d8YafCzks9OFzWpBrU9ced9/ear9NWfDZXNML+hWjOKlF3T/djgtWazp0xPJsuYrLK4RKZETcglMIyuYyxny34StoknyfB/E15K8oa8tOULlM45hwT2SBIAAAAAAAAAAAAc30vzXqqfUQfpKqepr6MP1+J6HQdPztynxDKtXDnutoXQBe6yybF6JaG+zPbwkcvUY994bsV9dnQI4HWlMIm5EZJkRNyCUwmk3Iizy2vdaHutvI5ctNd3Hmx67rA0OcAAAAAAAAAAIJA8+OxcKFOdWfqwV/PuRsxY5yWiseZWIfM8bip16k6s32ptvy5JfgfTYcUY68YbYhoNvhQABJJ8aX3t0eWYvrYcX242UvHxPNzY+Fv4duO/KNPamaWxkmETciJRBkmESmRGdObi1Jbp3/AEMLRuNML13Gl7RqKcVJczitGp08+1eM6bDFiAAAAAAAAAAHC9L8066p1EH6Ok3qa+lP9OP3nt/T+n4V5z5ltrDnT0vbMKAQAAejBYl0pqXLaS70zVlpzjXtsx24y6eEk0muKaTT8+Z5sxp3MkyCUyIyuREpkEphGSIkfL25diNMtL2lt4M581Pbmz4/a3OVxgAAAAAAAACm6S5p82otRfpal40+9d8vYdfSYPu3/iGVYfPWfRR8NvhBQAAAAAC5yXFfym9ruHwOLqMf7Q68F99lsmcjoZXCJTIJuEZXIiUyIlMkpMLvA1+sjx9ZcH8TgyU1Lz8tOM6ekwakgAAAAAINdarGEZTk0oxTk2+SRlWNzqB81zjHyxVaVV3S2hH6seS/E+k6XDGKmvbdEaeKx0spAgAAAAAGVOTi1JcGmmn5GNoiY0yrPGXS4WuqkFJe1dzXI8zJTjOnfS3KNt6ZiyZJkRKZESmBNyIyTIN+Er9XJPls/I1ZKcoactOcL2Mk1fvOGY1LzpjXZkAAAAAEAcp0zzF9nDRe6U6tu6/CP5+49P6fh3POfTOkOT0nsthpKGkBpAaQGkgWGxW5hnFKi3FXnNbxjay8GzoxdPa/+mu2TSu/7HO/8KNu7Uzp/wDDHy1/fXvR3pFSlNU5ejc7K0mrX70zz+s6O0RuO+nV0/URDr0zyXpR3ZXJr2JTCMkREphE3IiUyaT+FtlVe6cHuuK8jjzV1O3F1FNW2sTQ5gAAAAQQfOM6queJrSf2koryj2V+CPo+krxxQ3xGoeKx0qWAWAWAWAWAq8+x/UU9MX6Sd1H+lc5HR02L7lu/hqyW05F957MRERqHHM7AAmN+SNw+kdEM3+dUdE3etRspX3lHlI+Z6/pvs33HiXs9Lm5w6BM4HX7ZIIlMglMIyRETcko9GBnpqQ87e81Zo3Vqzxypt0BwPNAAAABAHzrOKLhiK0X9pJ+/jf7z6Hpr8sUOjzDx6ToDSA0gNICwGFepGnGU5O0YptvyLWOU6hLTpwuPxcq9SVR8+EV9VLZHt4MfCunFe0zLzm3lDHQNmgbNPbk2YywleFaN2k7Tj9aD3RzdThjLSat2DJ9udvq1CtGpCNSDTjOKlFrmnzPl7VmtprL3KW5RttTIqUyDJMiJTCJTInrbfgo3qQX9Sfu4mrNOqtWWdY3RnnvMAAAAAIOW6W5e7rERXLTUt9zPU6HNr8JbscuZseqyLALALALDY5fpTmF383i+EbOo1ze6id3S4/2loy2V2W5HjcX/AAMNVqrbWoNQ8tT4G3L1uHFOr200xG19Q+TnNZLjTpU/CdaN/wDW5x2+tdNE/j3/AKIozqfJtmiXBUJeEatn96RjX63gn/JeCpx/RPM8Om6mEq6VvKmlWXn2L8Dqx/Uunv8A42TipWdsXi3eJR2fQPN98HN986Lf+0PxfvPH+o4O/wByP7ej0eb9ZdoeW9FNwiUyCUwjJESfGlpk9Deo/KP5s4uov6cXU3/VbnM4wAAAAQBhUpqScWrpppp7MsTrusS5TNej84NzpJzhvp3lHw8Uerg6ys9rt1bRKklBrg00+53R3RaJ9stIsXf8rpMYN8Em2+Svck3iGO3tp5DjKsXogqba7Mq14pX5tbnPbrMVe/mWM37PZkfyfYPDvrK7eMrXu5VVane9/U5+25y9R9UzZI41/GGj26+MUkkkklwSSSSPOmZnyrIgAAKLPeieBx6bq0lGo/51K0KntfP23OrB1uXDP4z/AEkxtweYfJzjcNNVcHVjX0SU4JtUqqafj2X70ezT6vjyRxyRr/q1/F0uFVZ04yq0Z0ZtduE4taZLdX5o45tSZ/GdvWx5YvHlsLtu8ey4PLJGMzEMZtpYYLLpTac04x7nuzmy54jw5cvUxEahdwiopJKyWyOKZ5OCZ3O5ZhAAAAAAIAE3I1VcNTn60Iy84pmcXtHiV5TDT/xuH+xp/wCKMvvZPlect9OhCHqwjH/zFIxm8z5lNthhKBRIAAAAgAQCm2meFpy3hF/2oy52j2yjJaPbD5hR+zj7jL7t/ln96/y2U8NTj6sIrxSMZvaWM5LT7bbGLCQCQAAAAAAAAAAAAAAAAAAAAAAAAAAAAAAAAAAAAAAAAAAAAAAAAAAAAAAAAAAAAAAAAAAAAAAAAAAAAAAAAAAAAAAAAAAf/9k=;clipPath=inset(0% 0% 0% 0% round 17%);" vertex="1" parent="1">
          <mxGeometry x="430" y="360" width="80" height="80" as="geometry" />
        </mxCell>
        <mxCell id="LscboR7CBjjP8sHrx6VW-15" value="" style="shape=image;imageAspect=0;aspect=fixed;verticalLabelPosition=bottom;verticalAlign=top;image=data:image/png,iVBORw0KGgoAAAANSUhEUgAAAgAAAAIACAYAAAD0eNT6AAAABGdBTUEAALGPC/xhBQAAACBjSFJNAAB6JgAAgIQAAPoAAACA6AAAdTAAAOpgAAA6mAAAF3CculE8AAAAhGVYSWZNTQAqAAAACAAFARIAAwAAAAEAAQAAARoABQAAAAEAAABKARsABQAAAAEAAABSASgAAwAAAAEAAgAAh2kABAAAAAEAAABaAAAAAAAAAEgAAAABAAAASAAAAAEAA6ABAAMAAAABAAEAAKACAAQAAAABAAACAKADAAQAAAABAAACAAAAAAD4wtiGAAAACXBIWXMAAAsTAAALEwEAmpwYAAABWWlUWHRYTUw6Y29tLmFkb2JlLnhtcAAAAAAAPHg6eG1wbWV0YSB4bWxuczp4PSJhZG9iZTpuczptZXRhLyIgeDp4bXB0az0iWE1QIENvcmUgNi4wLjAiPgogICA8cmRmOlJERiB4bWxuczpyZGY9Imh0dHA6Ly93d3cudzMub3JnLzE5OTkvMDIvMjItcmRmLXN5bnRheC1ucyMiPgogICAgICA8cmRmOkRlc2NyaXB0aW9uIHJkZjphYm91dD0iIgogICAgICAgICAgICB4bWxuczp0aWZmPSJodHRwOi8vbnMuYWRvYmUuY29tL3RpZmYvMS4wLyI+CiAgICAgICAgIDx0aWZmOk9yaWVudGF0aW9uPjE8L3RpZmY6T3JpZW50YXRpb24+CiAgICAgIDwvcmRmOkRlc2NyaXB0aW9uPgogICA8L3JkZjpSREY+CjwveDp4bXBtZXRhPgoZXuEHAAAvjklEQVR4Ae3dC4xl910f8N+9c2dmZ/Yx+/B6HRI/4lfi4JQkNBAQpRBUKK0EbZFKiwqirRqhElpVChIqlZoiWlVFCkItglaoqkpTodJWSEiotIgUl0dISZOUULDXduw4sb279r53531vf/+7O1w7dszu7J2z59z/5yaze2Y895z///P77/1/7znnntNbOfHwKDwIECBAgACBqgT6VfVWZwkQIECAAIGxgABgIBAgQIAAgQoFBIAKi67LBAgQIEBAADAGCBAgQIBAhQICQIVF12UCBAgQICAAGAMECBAgQKBCAQGgwqLrMgECBAgQEACMAQIECBAgUKGAAFBh0XWZAAECBAgIAMYAAQIECBCoUEAAqLDoukyAAAECBAQAY4AAAQIECFQoIABUWHRdJkCAAAECAoAxQIAAAQIEKhQQACosui4TIECAAAEBwBggQIAAAQIVCggAFRZdlwkQIECAgABgDBAgQIAAgQoFBIAKi67LBAgQIEBAADAGCBAgQIBAhQICQIVF12UCBAgQICAAGAMECBAgQKBCAQGgwqLrMgECBAgQEACMAQIECBAgUKGAAFBh0XWZAAECBAgIAMYAAQIECBCoUEAAqLDoukyAAAECBAQAY4AAAQIECFQoIABUWHRdJkCAAAECAoAxQIAAAQIEKhQQACosui4TIECAAAEBwBggQIAAAQIVCggAFRZdlwkQIECAgABgDBAgQIAAgQoFBIAKi67LBAgQIEBAADAGCBAgQIBAhQICQIVF12UCBAgQICAAGAMECBAgQKBCAQGgwqLrMgECBAgQEACMAQIECBAgUKGAAFBh0XWZAAECBAgIAMYAAQIECBCoUEAAqLDoukyAAAECBAQAY4AAAQIECFQoIABUWHRdJkCAAAECAoAxQIAAAQIEKhQQACosui4TIECAAAEBwBggQIAAAQIVCggAFRZdlwkQIECAgABgDBAgQIAAgQoFBIAKi67LBAgQIEBAADAGCBAgQIBAhQICQIVF12UCBAgQICAAGAMECBAgQKBCAQGgwqLrMgECBAgQEACMAQIECBAgUKGAAFBh0XWZAAECBAgIAMYAAQIECBCoUEAAqLDoukyAAAECBAQAY4AAAQIECFQoIABUWHRdJkCAAAECAoAxQIAAAQIEKhQQACosui4TIECAAAEBwBggQIAAAQIVCggAFRZdlwkQIECAgABgDBAgQIAAgQoFBIAKi67LBAgQIEBAADAGCBAgQIBAhQICQIVF12UCBAgQICAAGAMECBAgQKBCAQGgwqLrMgECBAgQEACMAQIECBAgUKGAAFBh0XWZAAECBAgIAMYAAQIECBCoUEAAqLDoukyAAAECBAQAY4AAAQIECFQoIABUWHRdJkCAAAECAoAxQIAAAQIEKhQQACosui4TIECAAAEBwBggQIAAAQIVCggAFRZdlwkQIECAgABgDBAgQIAAgQoFBIAKi67LBAgQIEBAADAGCBAgQIBAhQICQIVF12UCBAgQICAAGAMECBAgQKBCAQGgwqLrMgECBAgQEACMAQIECBAgUKGAAFBh0XWZAAECBAgIAMYAAQIECBCoUEAAqLDoukyAAAECBAQAY4AAAQIECFQoMKiwz7q8RwK9XG/5msuvflnwuG0Co9zyMP/Yzr/LsgcBAgS+VEAA+FIR39+UQNmFNJ+T/YFcWMjlq8OI0/m1tjPzCAI35XnLv1xm+2KeXyeyJscyjZUfXc6abOTC1i1vwAoIEJgVAQFgVirZcD/Ku/wj+Ud5l/m5jZz0L+WMk3/Hyiju2j+Kt85HLOcEVCYfj2YFivnzWYvH1yNOnc26bOXXStZrcRR3Zs0uXA8DatNsXWyNQNsEBIC2VaQD7TmaE3t5p//UmZxYFkbxTW/aju94x2Z85eHNOLS4GccXt+Lg/CgW+6MYlVkmf82jQYE0v7jVj7Mb/Ti/Nh9fuDIf//3UfPz8qUGcezGLd2QU9+fumov5e5tSQIOFsSkC7RLorZx42EtAu2rSutaU+bvs0T+QC0v59fT5/OPAMH7y7evxvjtX48FDa3FgsBULOeEPR/0Y5oxf9gyUgVWe69G8QHHv90Yxl1/bmcJWt+fi1OpCfPzM/vi5pxfjsecGcfDwKO7IPQIvZZjLWOBBgEBlAgJAZQW/2e6WiaQcNz6RE8VTuUs5ViN+7KvW47vfeinuO7CaE0wvNoc56Y+uTfpl2s8fjR8m/2sOt+PPnVQ/yrrshIFBBrRebxjn1gfxa88fjO/5zP48OaAfD+Vhm9Ml4XkQIFCVgABQVblvvrNlXviKnPyfyHf9X3NiOz7y7ovx1ccu5cTfj42c+Ef57rJM+Cb7m7dt+hklFJRAUILAoL8dn7+8L/714yvxLz6zGA/eMYpz+QvlkIBaNl0Z2yNwewQEgNvj3omt5p7h8eT/+Mu9+KF3bMSHHj0bb1neyN3J5dSRnPg70QuN/FKBnSCwOLede28ifuFzR+JvP3Yg7ssQcDn/Y/m0gNp+qZrvCcyegJMAZ6+mU+lReef/pnzn//jpXvzoe9bjhx89E8s5Wq5uDcbHlqeyESu5LQJlcu/luQHr2/3ckxPxvQ+cjf2DUfy1xw7GvXk4oAQ/RwRuS2lslECjAs79aZS7GxsrE0A55n8yd/v/w3fn5P/OM7Evvy8TRjmxzGM2BMrFmkqtN4eD+K57z8YvfOOlePZcL8qnPDwIEJh9Af/UZ7/GN9XDMr0fzlHx1NVefOc9m/EPHn05lvL7zWHP5H9Tkt345bI3ID+smedzzMdfyRDws19/JZ7MvT4lAJZw4EGAwOwKCACzW9td9Syv3xNr5ZV/MIx/9q7zcXh+e3yyn0v77oqzE0/aCQHbo0F8z/3n4u++cyOeyAs7HfHq0In6aSSB3Qr4J75buRl9Xrm635k86e+j77kSb1tZzUv6znnnP6O1fmW3SgjYyuC3NDeKH3rkQkReNXAjv8/h4EGAwIwKCAAzWtjddGs5Z4En1yL+0oNb8W1vvpi7/efGJ4vtZl2e0z2BspenBL4HD67Gzzy6Gi/mZYSPSgDdK6QWE7hBAQHgBqFm/dfKO8D9ZTTkrt+/9cCVOLywne8Ir11EZtb7rn8TgfLpgGFeF/Db33Ip7yQ0jJfyKlA+KjTxsURglgQEgFmq5i30pdzR78m8gczXvGU7vvb41Zz8+97934JnV59aguBmftrjTcvr8ZMPrcf5/FTAYXsBulpO7SbwhgICwBvy1PMfV8pIyF2+f+e+9TiysHktANTTfT19hUD5VEC5PsD77szjQXmzp3JfBy8UrwCySGBGBPy7npFC3ko3yiAoL/KxNIpHj67lSX+98UfDbmWdnttdgXJp53L+x0OHVuP9eafHcrvnsofIgwCB2RIQAGarnrvqzSBf3J/ejLzG/yjuPbBx7di/F/xdWc7Ck0rpSyBcGmzHNx7PkwDymhDlLpAeBAjMloAAMFv13FVvxid5bfXikUNbeVvf7fGd/bze74pyZp5U7u642B/Guw9nAMg7QO4zIGamtjpCYEdAANiRqPjvxfLinod7Hzm0HXN5l7hyNMCDQPkMyIGFDADlPIDkkAGMCQKzJSAAzFY9d9Wb8fHd9Yh7locxn7eKLbeM9ahdoJz8lwEgrwQZy9euDunFovYxof+zJuDf9KxVdBf9KecAlLf9RxfyM9+5bA/ALhBn7Ck7EbAEwnI5wC2DYsYqrDsEfLrHGHiFQHmN9zr/CpCKF3fGwc7f5ZMBHgQIzJaAPQCzVc9b7o3X+VsmtAICBAh0QkAA6ESZNJIAAQIECExXQACYrqe1ESBAgACBTggIAJ0ok0YSIECAAIHpCggA0/W0NgIECBAg0AkBAaATZdJIAgQIECAwXQEBYLqe1kaAAAECBDohIAB0okwaSYAAAQIEpisgAEzX09oIECBAgEAnBASATpRJIwkQIECAwHQFBIDpelobAQIECBDohIAA0IkyaSQBAgQIEJiugAAwXU9rI0CAAAECnRAQADpRJo0kQIAAAQLTFRAAputpbQQIECBAoBMCAkAnyqSRBAgQIEBgugICwHQ9rY0AAQIECHRCQADoRJk0kgABAgQITFdAAJiup7URIECAAIFOCAgAnSiTRhIgQIAAgekKCADT9bQ2AgQIECDQCQEBoBNl0kgCBAgQIDBdAQFgup7WRoAAAQIEOiEgAHSiTBpJgAABAgSmKyAATNfT2ggQIECAQCcEBIBOlEkjCRAgQIDAdAUEgOl6WhsBAgQIEOiEgADQiTJpJAECBAgQmK6AADBdT2sjQIAAAQKdEBAAOlEmjSRAgAABAtMVEACm62ltBAgQIECgEwICQCfKpJEECBAgQGC6AgLAdD2tjQABAgQIdEJAAOhEmTSSAAECBAhMV0AAmK6ntREgQIAAgU4ICACdKJNGEiBAgACB6QoIANP1tDYCBAgQINAJAQGgE2XSSAIECBAgMF0BAWC6ntZGgAABAgQ6ISAAdKJMGkmAAAECBKYrIABM19PaCBAgQIBAJwQEgE6USSMJECBAgMB0BQSA6XpaGwECBAgQ6ISAANCJMmkkAQIECBCYroAAMF1PayNAgAABAp0QEAA6USaNJECAAAEC0xUQAKbraW0ECBAgQKATAgJAJ8qkkQQIECBAYLoCAsB0Pa2NAAECBAh0QkAA6ESZNJIAAQIECExXQACYrqe1ESBAgACBTggIAJ0ok0YSIECAAIHpCggA0/W0NgIECBAg0AkBAaATZdJIAgQIECAwXQEBYLqe1kaAAAECBDohIAB0okwaSYAAAQIEpisgAEzX09oIECBAgEAnBASATpRJIwkQIECAwHQFBIDpelobAQIECBDohIAA0IkyaSQBAgQIEJiugAAwXU9rI0CAAAECnRAQADpRJo0kQIAAAQLTFRAAputpbQQIECBAoBMCAkAnyqSRBAgQIEBgugICwHQ9O7+2Ued7oAMECBAgcCMCAsCNKFXyO73sZ/nyIECAAIHZFxAAZr/Gf2IPd971b+bCaOebP/FZfoEAAQIEuiwgAHS5elNq+1aZ9OciXlrvxdaoFz27AaYkazUECBBor4AA0N7aNNayjRIA9kU8faUfm8MMAGE3QGP4NkSAAIHbJCAA3Cb4Nm12HAAWIp64OBfbo77zANpUHG0hQIDAHgkIAHsE26XVbmVj+/Oj+GQGgHMbg5jrjewD6FIBtZUAAQK7EBAAdoE2a08p5wA8MIj43OlenLywLwb9YZ4M6ESAWauz/hAgQOCVAgLAKzUqXS5H/MeHAQa9+M3Ti7Ge5wH0cy+ABwECBAjMroAAMLu1vameXR5GHDs0in/yzEJ88epizPcdBrgpQL9MgACBjgkIAB0r2F41t5wHcDQ/Chin+/E7p/bnHgCHAfbK2noJECDQBgEBoA1VaEkbzuVegAN3jOJD/28pnruyGItzJQS0pHGaQYAAAQJTFRAApsrZ7ZWVKwHemScDnn65H//x6ZX8SGAmAucCdruoWk+AAIEvIyAAfBmYWn/80nbEw8dG8aO/uy8+9uJKLM1tx9AnAmodDvpNgMAMCwgAM1zc3XStvOEvhwKO5aGAv/CJg/GHF5ZjebCVewPsCtiNp+cQIECgrQICQFsrcxvbtZ6HApbLyNjoxd/83cPxzOXFDAH2BNzGktg0AQIEpi4gAEydtPsr3NkL8Na8P8D/PjeI7/v4sXjq0r7xnoBygSDnBXa/xnpAgAABAcAYeF2BPBcwzuShgLcujeK3zg7ibR87Fo+dOhQLc5sxnxcJKucFCAKvS+eHBAgQ6ISAANCJMjXfyDK574SAe/eNYrDVi2/+Hyvxbx4/nrcNnoulPC9gLncVjPJjAkNJoPkC2SIBAgRuUaC8xnsQeF2BMq+XawOdLScF5sL+QxEf/M3l+Ohzi/Ejj1yJ9x2/EkcWNvOiQb28jXB/HARefYigrKEcUJAQEqFTj2vBLvfyjAfBKPb3e7GQyyrZqTK+qrH5zzjKfT/ygz7jv8v36vkqouq+6a2ceNgYqK7su+/wnRkETq7n8y/04r13b8cH3roW7z62Fvcd2Ih9c1vjiwfN5aRvUO3euA3PLId4BvkR0N8/tz/+1C8ej8jzQcYPhW1DeXbXhpLmx1+juCvf+h3O5atZzyuZBMqVQD3qExAA6qv5LfW4vP4v5Zv6g3nw6MmN/OZ8frM8im+5cxjvObIZX31kO44sbo8vJTyX9xMIHx+8Je/b9eRS50Ge6/HCej8+c24h5q83pPzco3sCZT/cpTyM98LqXJxe7cevX8h/wC/nT/dHHDkwGu/hKx//LXsIPOoREADqqfVUe1peUObzj5V8HdnIF47Pb+YP1vMHl69vZj5fSZxhMlXzRldW3ile7cV3vmMj/v3XvZg3h7p2rkepu0c3Bcou/+GoPz5c94Wr8/F8Xu77sdML8c+fzXiXV/88eHQUJ3LPQLkYmBzQzRrfbKsFgJsV8/uvEShzRQkDC/lV9g6Ueb8cZ3QfgddQdeYH81nEP1zrxfe/eSN+6r1nxvUt5wWYGjpTwtc0tFSvPHq5Z6fs3Sk3/Frb7seLq4vx6y/sj7/3h0ux+lI/7s2LgJXLgl/Kr/JvWxgYs83kH04CnMmyNtupMtlv56vEWn5dzOWdF5pmW2Fr0xRYLivLwpa6XpsCynkd1yJA+YlH9wR2JvJyfke5sudoNJchYBR379+I739wLb71zYvxy58/GB/85FLEYsSD+fVijoEySew8t3u91uI3ErCT9o10/LddCZQXC1/dNni9V3zBblf/HFr3pFLH8lUm//LYGPZyT8Ag7lrajA+87Ux88tvPxdceGsaTeX7PV+QuACcIjplm8g8BYCbLqlMECBC4MYGdMLCZQWB9ez7edfRy/KdvOBMffHgjnjjbizdlCCh7+QTAG/Ps0m8JAF2qlrYSIEBgjwR2gsDVrUG8aWkrfvw9p+NH3rkeJ6+HAHsC9gj+Nq5WALiN+DZNgACBtgmUQwPreXLgUr7z/9CjL8X3PrgZJy/14njOFuWTBB6zIyAAzE4t9YQAAQJTESghYCOv7nlofhgf/qqzcc/KdnwudwEsOw4wFd+2rEQAaEsltIMAAQItEri2J2Aur/K5Hh99b36+J6/xsV8AaFGFbr0pAsCtG1oDAQIEZlKghIDV/ITAn77jUu4JWI+n85MBR80aM1NrpZyZUuoIAQIE9kAgr+g1lzf8+uv3X4o4MIyreSJAuUCQR/cFBIDu11APCBAgsGcCOffn+QDlUMBqfOTt63EqPxVwRALYM+8mVywANKltWwQIEOigwCj3AvTzSgDfdNfVvDNkXirYXoAOVvG1TRYAXmviJwQIECDwCoG8F9T4JkL3H1qLv3r3Vnw+b/xV7v3h0W0BAaDb9dN6AgQINCIwzD0AS3Pb8efvylt/Xrh2S/BGNmwjeyYgAOwZrRUTIEBgdgTK3T0H+a7/3oMbeRbgtRtD2QnQ7foKAN2un9YTIECgEYFyG+HtUT9O5E2D4sgoXs4bBDgXsBH6PduIALBntFZMgACB2RIot4c+vm87vi7vGDwOAHYBdLrAAkCny6fxBAgQaEagzPXlMMBifxgr87mQ/zf/N2O/V1sRAPZK1noJECAwawI54+e8P/6ata7V2B8BoMaq6zMBAgQIVC8gAFQ/BAAQIECAQI0CAkCNVddnAgQIEKheQACofggAIECAAIEaBQSAGquuzwQIECBQvYAAUP0QAECAAAECNQoIADVWXZ8JECBAoHoBAaD6IQCAAAECBGoUEABqrLo+EyBAgED1AgJA9UMAAAECBAjUKCAA1Fh1fSZAgACB6gUEgOqHAAACBAgQqFFAAKix6vpMgAABAtULCADVDwEABAgQIFCjgABQY9X1mQABAgSqFxAAqh8CAAgQIECgRgEBoMaq6zMBAgQIVC8gAFQ/BAAQIECAQI0CAkCNVddnAgQIEKheQACofggAIECAAIEaBQSAGquuzwQIECBQvYAAUP0QAECAAAECNQoIADVWXZ8JECBAoHoBAaD6IQCAAAECBGoUEABqrLo+EyBAgED1AgJA9UMAAAECBAjUKCAA1Fh1fSZAgACB6gUEgOqHAAACBAgQqFFAAKix6vpMgAABAtULCADVDwEABAgQIFCjgABQY9X1mQABAgSqFxAAqh8CAAgQIECgRgEBoMaq6zMBAgQIVC8gAFQ/BAAQIECAQI0CAkCNVddnAgQIEKheQACofggAIECAAIEaBQSAGquuzwQIECBQvYAAUP0QAECAAAECNQoIADVWXZ8JECBAoHoBAaD6IQCAAAECBGoUEABqrLo+EyBAgED1AgJA9UMAAAECBAjUKCAA1Fh1fSZAgACB6gUEgOqHAAACBAgQqFFAAKix6vpMgAABAtULCADVDwEABAgQIFCjgABQY9X1mQABAgSqFxAAqh8CAAgQIECgRgEBoMaq6zMBAgQIVC8gAFQ/BAAQIECAQI0CAkCNVddnAgQIEKheQACofggAIECAAIEaBQSAGquuzwQIECBQvYAAUP0QAECAAAECNQoIADVWXZ8JECBAoHoBAaD6IQCAAAECBGoUEABqrLo+EyBAgED1AgJA9UMAAAECBAjUKCAA1Fh1fSZAgACB6gUEgOqHAAACBAgQqFFAAKix6vpMgAABAtULCADVDwEABAgQIFCjgABQY9X1mQABAgSqFxAAqh8CAAgQIECgRgEBoMaq6zMBAgQIVC8gAFQ/BAAQIECAQI0CAkCNVddnAgQI7Eqgt6tneVI7BQSAdtZFqwgQINBCgVH08n8esyEgAMxGHfWCAAECeyowyrWXqX992IsLm7mU/y8/8+iugADQ3dppOQECBJoTyNl+0BvF81fn4uNXIu6ai9iSAJrz34MtCQB7gGqVBAgQmDWBsvO/nwHg5bWFiHO9WMkAMJy1TlbWHwGgsoLrLgECBHYj0Mtd/uUd/9OX5vPpvdjOP+0A2I1ke54jALSnFlpCgACB1gr0c7q/ujUXv/JCBoBDEZe9/W9trW60YQLAjUr5PQIECFQqMMy3+vP9YTx1aV/80vODuGdxFBve/nd+NAgAnS+hDhAgQGBvBa7t/h/Ff/vi/oiNXszl4YByCMCj2wICQLfrp/UECBDYU4Hy7n8x3/0/eWk5/tEfLMbdh0dx3u7/PTVvauUCQFPStkOAAIEOCvTy7f/WaBT/5ZkDeRGAXn4U0Nn/HSzj6zZZAHhdFj8kQIAAgeGoF0tzW/G/Th2KD396MR44Moqz3v3PzMAQAGamlDpCgACB6QmUyX9xbjueubwYP/CpgxH5/8tO/JsecAvWJAC0oAiaQIAAgTYJlMl/IY/7X9zsx4c/czSePj8X9w0iVgWANpXpltsiANwyoRUQIEBgdgSuvfMfxuXtXvzEZ++In39yPh46OIqXctd/Hv73mCGBzHQeBAgQIFC7wPjNfb7zXx5sxXNXF+LHP3Msfu6JnPyPjuKF/MxfmSzsAJitUSIAzFY99YYAAQI3JVAm9VFO/OVCP73+dnzipYPxQ//nUPze6bl4OCf/503+N+XZpV8WALpULW0lcBsFykRhF/BtLMCUNr3zLr5M+uXmPgv9Uf69HadWF+I/P3Mo/v4nlyL2Rdy/YvKfEnlrVyMAtLY03WlYmRTKZ4PLYFrMv8tXv/xw55WmO13R0usC8zkp5BVfYzA+S6gUs0z+inqdp5N/Xati+bc5Gt/Wt5d/bwx78eyVxfj46eX4yBNL8akX5uLeY6PYzH+7Z7zz72Sdb6bRAsDNaPndVwnk3UDjYE4QZcI/uZnz/VYurOcPr77q13zTRYGS4HJyeOFYmTZyJsiLweS1YOwB6GItr7c5qxjDUT82t+fiC1cH8dzlffHxMwvxT5/Nm/u8lP+Qc3f//Xfk5/zzF0t2L9lPhr+ON6N/9VZOPKzGM1rcvepWmfiP5B8X84XizMWcIHLyf/DEMN69sh2PHNqKt+cZwysLeTzRy8delWDP11teFMpenefXIh6/NMhLwZbJY883awN7JFBi3KUM6KfW+vHC1bn42IUs6Nn86XLO+wdGcSz/PZfL+7rBzx4VoKWrFQBaWpg2Nqu8/h/O143NfKF4obx4HBnGP75/I77hzvV46NBaHFncypuEDPPiIcMoIcF80cYq3libRhnf5vIiMJ89uz/e+Yt3jo8Jj5+pqDcG2MbfKv8ox1+juCv3/a7kcvlc/5X897zVxvZq054LOASw58SzsYGyO/COfME4eSkn/rwV6Efetxp/8e7Lcc/+1Tx7OHcSD/uxnScV5elEsZ73DDdPdLvupX6LWdP17SzusWE8lLsDynFhde1uXcshgO0sYPm7vNM/dX1Xf3d7pOW3KiAA3KrgjD8/3xzEcs75C/n3yTO9+MFHN+KDb78QDxxczZ/kpDCci9XctVhOKMpfGz9euXz9R/7qmEDZ3V9OFiu3gY28IMyVzAFr1yePjnVFcwkQ+DICAsCXgfHja3f8OpQv/BfyncKpPBb8H775cnzH3edj31yePbydQ+f6pF8mCg8CBAgQ6JaAANCtejXW2vLOv0z+XywHB/Obx77lfHzdnRfzDOJB7ha+9vnhxhpjQwQIECAwdQEBYOqks7HCstv/UjlYmJP/b//Z8/E1xy/F2lZ+XCjf7Y8/4z8b3dQLAgQIVCuQ7/E8CLxaoAyKxfy6mJ/n/40/Uyb/i3mcf/Cq4/yvfobvCBAgQKBrAgJA1yq2x+0tR/PL2f6ff7kX//Z9V+LrT1x75+84/x7DWz0BAgQaFhAAGgZv++bKcf+TV3rxvW/biL98z/nYyrP8y25/DwIECBCYLQEBYLbqeUu9KYNhPNfnHx/6yotxYDDKAJA/u6W1ejIBAgQItFFAAGhjVW5Tm8pV/p4734sfe2Q93nboaqznu38n/N2mYtgsAQIE9lhAANhj4K6sPnf0x3rZ0780yl3/l/OSvvm+v9z9xYMAAQIEZlJAAJjJst58p5ZzJDyfx/5/8L7NeOvBtbxNaP/aVeBuflWeQYAAAQIdEBAAOlCkJppYPvcfVyLef2J9fDOfYV7X34MAAQIEZldAAJjd2t5wz8rVoMrlfsv9wB86nNf8zcnfrXxvmM8vEiBAoJMCAkAnyzbdRpf7vp/KS/7+uZVh3L28lXd9Kzf3me42rI0AAQIE2iUgALSrHrelNeUEwMg7+t19YDtP/iv3CDX735ZC2CgBAgQaFBAAGsRu66YWyny/HvFABoBBf+ie720tlHYRIEBgigICwBQxu7qqcggg8hDA8YVR7gHIHQAu/dPVUmo3AQIEblhAALhhqtn9xfEO/9zzv69c9be8//fx/9kttp4RIEDguoAAYChcEyjv/E38RgMBAgSqERAAqim1jhIgQIAAgYmAADCxsESAAAECBKoREACqKbWOEiBAgACBiYAAMLGwRIAAAQIEqhEQAKoptY4SIECAAIGJgAAwsbBEgAABAgSqERAAqim1jhIgQIAAgYmAADCxsESAAAECBKoREACqKbWOEiBAgACBiYAAMLGwRIAAAQIEqhEQAKoptY4SIECAAIGJgAAwsbBEgAABAgSqERAAqim1jhIgQIAAgYmAADCxsESAAAECBKoREACqKbWOEiBAgACBiYAAMLGwRIAAAQIEqhEQAKoptY4SIECAAIGJgAAwsbBEgAABAgSqERAAqim1jhIgQIAAgYmAADCxsESAAAECBKoREACqKbWOEiBAgACBiYAAMLGwRIAAAQIEqhEQAKoptY4SIECAAIGJgAAwsbBEgAABAgSqERAAqim1jhIgQIAAgYmAADCxsESAAAECBKoREACqKbWOEiBAgACBiYAAMLGwRIAAAQIEqhEQAKoptY4SIECAAIGJgAAwsbBEgAABAgSqERAAqim1jhIgQIAAgYmAADCxsESAAAECBKoREACqKbWOEiBAgACBiYAAMLGwRIAAAQIEqhEQAKoptY4SIECAAIGJgAAwsbBEgAABAgSqERAAqim1jhIgQIAAgYmAADCxsESAAAECBKoREACqKbWOEiBAgACBiYAAMLGwRIAAAQIEqhEQAKoptY4SIECAAIGJgAAwsbBEgAABAgSqERAAqim1jhIgQIAAgYmAADCxsESAAAECBKoREACqKbWOEiBAgACBiYAAMLGwRIAAAQIEqhEQAKoptY4SIECAAIGJgAAwsbBEgAABAgSqERAAqim1jhIgQIAAgYmAADCxsESAAAECBKoREACqKbWOEiBAgACBiYAAMLGwRIAAAQIEqhEQAKoptY4SIECAAIGJgAAwsbBEgAABAgSqERAAqim1jhIgQIAAgYmAADCxsESAAAECBKoREACqKbWOEiBAgACBiYAAMLGwRIAAAQIEqhEQAKoptY4SIECAAIGJgAAwsbBEgAABAgSqERAAqim1jhIgQIAAgYmAADCxsESAAAECBKoREACqKbWOEiBAgACBiYAAMLGwRIAAAQIEqhEQAKoptY4SIECAAIGJgAAwsah7aRTR69VNoPcTgZ2hsPN35PjwIEBgtgQEgNmq5656s12eNR9xdiNie5Qv+X/8qr+r1XnSDAjszPebwxwMw4g5Y2IGqqoLBF4tIAC82qPK7zbLq/1CxBdW+7GVAaDn7V6V4+DVne5FvzeKy5tzEVcj9l3LAa/+Fd8RINBpAQGg0+WbTuO3SgDIPQDPXpmL4ahvB8B0WGdgLaNY28oAsN4b7wHY2SswAx3TBQIEUkAAMAxisxgMRvHpC3NxbmMwfufnxb7ugVHe/a8P+/Hpc4N8+x+xZkDUPSD0fiYFBICZLOvNdarsAXgoX+dPnunFs5cWYr4/jFE5F8CjWoFyQuj69lw8djqPDe0fxaoAUO1Y0PHZFRAAZre2N9yz8tq+Xeb7nPQ/fXZfngfgEwE3jDeDvzjM+s/3hvHkxcX41dP9uDsPD43PE5nBvuoSgZoFBICaq/+Kvl/MM717h0fx088sxOm1hRjkBOBN3yuAKlosp4GW6v/W6eWI1V4s5KvE+JMiFRnoKoEaBASAGqp8A30cHwbId3pPPDcXnzizPw8DbDsMcANus/YrJfTNzw3jxdXF+ImnFmP5yCguZDj0IEBg9gQEgNmr6a56VF74xy/0R0fxL08ujfcCjM8F2NXaPKmrAuXcj37u/fnVLxyIL77YjzfnuSF2/3e1mtpN4I0FBIA39qnqv5YzvR9cjPifzwzil587NJ4InAxYzxAY5uS/b247/ujCUnzg95fizcdH8bJ9//UMAD2tTkAAqK7kb9zh8oJ/9x2j+MAnl+MPzu+PpcF2XhvAJwLeWK37/7XsARr0R3Elzwb96T9ayY8A9Mef/Tf/d7+2ekDgywkIAF9OptKfl8O95eqv5dX/hz+1EqfWBrGQx4TLmeEesylQSltO/JvrbccvPH0kfvazC/HwwVGcc+x/NguuVwSuCwgAhsJrBMonAh7YN4pf++IgfuKzR+Nqviucz3eH9gS8hqrzP9iZ/Of7W/Ffnz0SP/Db++PB3PV/Kt/6e3HofHl1gMAbCsztO3Dsw2/4G/5jdQLlhf9Szgz35qfAfiXPBxj0F+O9x1djOa8WuJVXh3PXwNkYEmWvTrnJT/nExy99/nB8928cinvLWf/58xIMPAgQmG0BAWC267vr3pUQcLGEgAMRv/TsIF5cW4p3H92I4/s286zwufyIoIsF7Rr3Nj+xTO7l5M7FPLRTzvD/aO72/77HDsY9OfnnfX/Gl4Z21sdtLpLNE2hAoLdy4uHyeuBB4HUFymHgu/J+MCcv9uIdx7bjp951Kb7hzot5oaBeXiu+BIFRflrgdZ/qhy0T2Jn4y8c7B/n19KV98TOPH46f/L8L8UCe+Hk+f6EEAuVsWeE0h8AeCQgAewQ7S6stZ4Ifz10Cnyt3Dboc8eF3rcd33Xc5Hjx4NXcf56SRQaCcH3DtRMHRHx8iMJHcvlEwTvX5R1ZjXI9+LpVJv3zG/9TqQnzshYPxN34/j/Fc6sdDK6M47XT/21csWyZwmwQEgNsE36XNlom87AlYyoWD+fXkufwjTxL88UfW4/1fsRoPH1qN/YOtvGTsKPcI9POysdfCQJmEynM9mhcoh3DKHf3KV7nK40aeu/H81cX4nVPL8a+e2he/l1d8PHpsFIdy787LWdzy+x4ECNQlIADUVe+p9PZozhZlUnnufE7vOcF821u241vv2ox3rGzF4cWNOLZvK44u5DvO/G/lXAEpYCrsN76SNL+w1Y+X1+fi/Pognr28EI+dGcS/ezGv9Xw6a5Zn+T+Ui2dz4i919CBAoE4BAaDOut9yr8s7xsPX3zZ+biO/uZQTS/k7dycfWR7FV+YVBRfzR+aXW6a+6RUU8y9kLU6uZQEu5jflVo8HI47mXps78h1/+Xz/hsLctKsnEJg1AQFg1iracH9KBljI+WU5F3LOj6s5uZRdylfyazz753/zaFCgTOzFPL/elJP9geshrdRjPf/bVoNNsSkCBNotkLf68CCwe4Eyz5d7CKxdP4mszDflXIH9RtbuUafwzJIDyoS/mnUpyx4ECBD4UgEv018q4vtbEiiBoHyZdW6J0ZMJECCw5wLXdxDu+XZsgAABAgQIEGiRgADQomJoCgECBAgQaEpAAGhK2nYIECBAgECLBASAFhVDUwgQIECAQFMCAkBT0rZDgAABAgRaJCAAtKgYmkKAAAECBJoSEACakrYdAgQIECDQIgEBoEXF0BQCBAgQINCUgADQlLTtECBAgACBFgkIAC0qhqYQIECAAIGmBASApqRthwABAgQItEhAAGhRMTSFAAECBAg0JSAANCVtOwQIECBAoEUCAkCLiqEpBAgQIECgKQEBoClp2yFAgAABAi0SEABaVAxNIUCAAAECTQkIAE1J2w4BAgQIEGiRgADQomJoCgECBAgQaEpAAGhK2nYIECBAgECLBASAFhVDUwgQIECAQFMCAkBT0rZDgAABAgRaJCAAtKgYmkKAAAECBJoSEACakrYdAgQIECDQIgEBoEXF0BQCBAgQINCUgADQlLTtECBAgACBFgkIAC0qhqYQIECAAIGmBASApqRthwABAgQItEhAAGhRMTSFAAECBAg0JSAANCVtOwQIECBAoEUCAkCLiqEpBAgQIECgKQEBoClp2yFAgAABAi0SEABaVAxNIUCAAAECTQkIAE1J2w4BAgQIEGiRgADQomJoCgECBAgQaEpAAGhK2nYIECBAgECLBASAFhVDUwgQIECAQFMCAkBT0rZDgAABAgRaJCAAtKgYmkKAAAECBJoSEACakrYdAgQIECDQIgEBoEXF0BQCBAgQINCUgADQlLTtECBAgACBFgkIAC0qhqYQIECAAIGmBASApqRthwABAgQItEhAAGhRMTSFAAECBAg0JSAANCVtOwQIECBAoEUCAkCLiqEpBAgQIECgKQEBoClp2yFAgAABAi0SEABaVAxNIUCAAAECTQkIAE1J2w4BAgQIEGiRgADQomJoCgECBAgQaEpAAGhK2nYIECBAgECLBASAFhVDUwgQIECAQFMCAkBT0rZDgAABAgRaJCAAtKgYmkKAAAECBJoSEACakrYdAgQIECDQIgEBoEXF0BQCBAgQINCUgADQlLTtECBAgACBFgkIAC0qhqYQIECAAIGmBASApqRthwABAgQItEhAAGhRMTSFAAECBAg0JSAANCVtOwQIECBAoEUCAkCLiqEpBAgQIECgKQEBoClp2yFAgAABAi0SEABaVAxNIUCAAAECTQkIAE1J2w4BAgQIEGiRgADQomJoCgECBAgQaEpAAGhK2nYIECBAgECLBASAFhVDUwgQIECAQFMCAkBT0rZDgAABAgRaJCAAtKgYmkKAAAECBJoSEACakrYdAgQIECDQIgEBoEXF0BQCBAgQINCUgADQlLTtECBAgACBFgkIAC0qhqYQIECAAIGmBASApqRthwABAgQItEhAAGhRMTSFAAECBAg0JSAANCVtOwQIECBAoEUCAkCLiqEpBAgQIECgKQEBoClp2yFAgAABAi0SEABaVAxNIUCAAAECTQkIAE1J2w4BAgQIEGiRgADQomJoCgECBAgQaEpAAGhK2nYIECBAgECLBASAFhVDUwgQIECAQFMCAkBT0rZDgAABAgRaJCAAtKgYmkKAAAECBJoSEACakrYdAgQIECDQIgEBoEXF0BQCBAgQINCUgADQlLTtECBAgACBFgkIAC0qhqYQIECAAIGmBASApqRthwABAgQItEhAAGhRMTSFAAECBAg0JfD/AW4QGRqKVs0zAAAAAElFTkSuQmCC;clipPath=inset(0% 0.67% 0.33% 0% round 15%);" vertex="1" parent="1">
          <mxGeometry x="430" y="252.86" width="82.84" height="83.12" as="geometry" />
        </mxCell>
      </root>
    </mxGraphModel>
  </diagram>
</mxfile>
